<?xml version="1.0" encoding="UTF-8"?>
<svg xmlns="http://www.w3.org/2000/svg" width="292" height="75" viewBox="0 0 292 75" fill="none">
  <g clip-path="url(#clip0_15308_43597)">
    <path d="M22.7328 21.0923C21.937 21.0923 21.291 21.7383 21.291 22.5341C21.291 23.3299 21.937 23.9758 22.7328 23.9758C23.5286 23.9758 24.1746 23.3299 24.1746 22.5341C24.1746 21.7383 23.5286 21.0923 22.7328 21.0923Z" fill="white"></path>
    <path d="M26.4956 14.1362C25.5126 14.1362 24.7168 14.932 24.7168 15.915C24.7168 16.8981 25.5126 17.6939 26.4956 17.6939C27.4787 17.6939 28.2744 16.8981 28.2744 15.915C28.2744 14.932 27.4787 14.1362 26.4956 14.1362Z" fill="white"></path>
    <path d="M31.2237 12.7508C32.394 12.7508 33.3302 11.8052 33.3302 10.6349C33.3302 9.47399 32.3846 8.51904 31.2237 8.51904C30.0534 8.51904 29.1172 9.46463 29.1172 10.6349C29.1172 11.7958 30.0628 12.7508 31.2237 12.7508Z" fill="white"></path>
    <path d="M39.35 6.7868C39.35 5.43864 38.2546 4.34326 36.9064 4.34326C35.5583 4.34326 34.4629 5.43864 34.4629 6.7868C34.4629 8.13496 35.5583 9.23034 36.9064 9.23034C38.2546 9.23034 39.35 8.13496 39.35 6.7868Z" fill="white"></path>
    <path d="M46.2983 4.41827C46.2983 2.88287 45.0625 1.6377 43.5271 1.6377C41.9917 1.6377 40.7559 2.88287 40.7559 4.41827C40.7559 5.95367 41.9917 7.19885 43.5271 7.19885C45.0625 7.19885 46.2983 5.95367 46.2983 4.41827Z" fill="white"></path>
    <path d="M51.0731 6.73067C52.7957 6.73067 54.1814 5.3357 54.1814 3.62241C54.1814 1.90913 52.7957 0.51416 51.0731 0.51416C49.3505 0.51416 47.9648 1.90913 47.9648 3.62241C47.9648 5.3357 49.3505 6.73067 51.0731 6.73067Z" fill="white"></path>
    <path d="M52.7387 51.5195C51.9429 51.5195 51.2969 52.1655 51.2969 52.9613C51.2969 53.7571 51.9429 54.4031 52.7387 54.4031C53.5344 54.4031 54.1804 53.7571 54.1804 52.9613C54.1804 52.1655 53.5344 51.5195 52.7387 51.5195Z" fill="white"></path>
    <path d="M50.7549 59.5899C50.7549 58.6068 49.9591 57.811 48.9761 57.811C47.9931 57.811 47.1973 58.6068 47.1973 59.5899C47.1973 60.5729 47.9931 61.3687 48.9761 61.3687C49.9591 61.3687 50.7549 60.5729 50.7549 59.5899Z" fill="white"></path>
    <path d="M44.2471 62.7446C43.0768 62.7446 42.1406 63.6902 42.1406 64.8605C42.1406 66.0214 43.0862 66.9763 44.2471 66.9763C45.4174 66.9763 46.3536 66.0308 46.3536 64.8605C46.3536 63.6996 45.408 62.7446 44.2471 62.7446Z" fill="white"></path>
    <path d="M38.5646 66.2744C37.2165 66.2744 36.1211 67.3698 36.1211 68.718C36.1211 70.0661 37.2165 71.1615 38.5646 71.1615C39.9128 71.1615 41.0082 70.0661 41.0082 68.718C41.0082 67.3698 39.9128 66.2744 38.5646 66.2744Z" fill="white"></path>
    <path d="M31.945 68.3062C30.4096 68.3062 29.1738 69.5513 29.1738 71.0867C29.1738 72.6221 30.4096 73.8673 31.945 73.8673C33.4804 73.8673 34.7163 72.6221 34.7163 71.0867C34.7163 69.5513 33.4804 68.3062 31.945 68.3062Z" fill="white"></path>
    <path d="M24.3993 68.7739C22.6766 68.7739 21.291 70.1689 21.291 71.8822C21.291 73.5955 22.6766 74.9904 24.3993 74.9904C26.1219 74.9904 27.5075 73.5955 27.5075 71.8822C27.5075 70.1689 26.1219 68.7739 24.3993 68.7739Z" fill="white"></path>
    <path d="M52.9535 21.3076C52.1577 21.3076 51.5117 21.9536 51.5117 22.7494C51.5117 23.5452 52.1577 24.1912 52.9535 24.1912C53.7493 24.1912 54.3953 23.5452 54.3953 22.7494C54.3953 21.9536 53.7493 21.3076 52.9535 21.3076Z" fill="white"></path>
    <path d="M59.5737 28.292C60.5568 28.292 61.3526 27.4962 61.3526 26.5132C61.3526 25.5302 60.5568 24.7344 59.5737 24.7344C58.5907 24.7344 57.7949 25.5302 57.7949 26.5132C57.7949 27.4962 58.5907 28.292 59.5737 28.292Z" fill="white"></path>
    <path d="M66.9602 31.2413C66.9602 30.071 66.0146 29.1348 64.8444 29.1348C63.6835 29.1348 62.7285 30.0804 62.7285 31.2413C62.7285 32.4115 63.6741 33.3478 64.8444 33.3478C66.0053 33.3478 66.9602 32.4022 66.9602 31.2413Z" fill="white"></path>
    <path d="M71.1449 36.924C71.1449 35.5758 70.0495 34.4805 68.7013 34.4805C67.3532 34.4805 66.2578 35.5758 66.2578 36.924C66.2578 38.2722 67.3532 39.3675 68.7013 39.3675C70.0495 39.3675 71.1449 38.2722 71.1449 36.924Z" fill="white"></path>
    <path d="M71.0696 46.3144C72.605 46.3144 73.8502 45.0786 73.8502 43.5432C73.8502 42.0078 72.605 40.772 71.0696 40.772C69.5342 40.772 68.2891 42.0078 68.2891 43.5432C68.2891 45.0786 69.5342 46.3144 71.0696 46.3144Z" fill="white"></path>
    <path d="M71.8661 47.9805C70.1528 47.9805 68.7578 49.3661 68.7578 51.0887C68.7578 52.8114 70.1528 54.197 71.8661 54.197C73.5794 54.197 74.9743 52.8114 74.9743 51.0887C74.9743 49.3661 73.5794 47.9805 71.8661 47.9805Z" fill="white"></path>
    <path d="M22.518 51.3135C21.7222 51.3135 21.0762 51.9595 21.0762 52.7553C21.0762 53.551 21.7222 54.197 22.518 54.197C23.3137 54.197 23.9597 53.551 23.9597 52.7553C23.9597 51.9595 23.3137 51.3135 22.518 51.3135Z" fill="white"></path>
    <path d="M15.898 47.2129C14.9149 47.2129 14.1191 48.0087 14.1191 48.9917C14.1191 49.9747 14.9149 50.7705 15.898 50.7705C16.881 50.7705 17.6768 49.9747 17.6768 48.9917C17.6768 48.0087 16.881 47.2129 15.898 47.2129Z" fill="white"></path>
    <path d="M8.51172 44.2637C8.51172 45.434 9.4573 46.3702 10.6276 46.3702C11.7885 46.3702 12.7434 45.4246 12.7434 44.2637C12.7434 43.0934 11.7979 42.1572 10.6276 42.1572C9.46666 42.1572 8.51172 43.1028 8.51172 44.2637Z" fill="white"></path>
    <path d="M4.32617 38.5812C4.32617 39.9294 5.42155 41.0248 6.76971 41.0248C8.11787 41.0248 9.21325 39.9294 9.21325 38.5812C9.21325 37.2331 8.11787 36.1377 6.76971 36.1377C5.42155 36.1377 4.32617 37.2331 4.32617 38.5812Z" fill="white"></path>
    <path d="M4.40167 29.1909C2.86627 29.1909 1.62109 30.4267 1.62109 31.9621C1.62109 33.4975 2.86627 34.7333 4.40167 34.7333C5.93707 34.7333 7.18225 33.4975 7.18225 31.9621C7.18225 30.4267 5.93707 29.1909 4.40167 29.1909Z" fill="white"></path>
    <path d="M3.59654 27.5241C5.30982 27.5241 6.70479 26.1385 6.70479 24.4159C6.70479 22.6932 5.30982 21.3076 3.59654 21.3076C1.88325 21.3076 0.488281 22.6932 0.488281 24.4159C0.488281 26.1385 1.88325 27.5241 3.59654 27.5241Z" fill="white"></path>
    <path d="M38.9115 15.3627C38.6306 15.0818 38.2561 14.9414 37.891 14.9414C37.5259 14.9414 37.1514 15.0818 36.8705 15.3627C36.5897 15.6436 36.4492 16.0181 36.4492 16.3832C36.4492 16.7483 36.5897 17.1228 36.8705 17.4037C37.1514 17.6845 37.5259 17.825 37.891 17.825C38.2561 17.825 38.6306 17.6845 38.9115 17.4037C39.1923 17.1228 39.3328 16.7483 39.3328 16.3832C39.3328 16.0181 39.1923 15.6436 38.9115 15.3627Z" fill="white"></path>
    <path d="M45.23 12.582C44.7806 12.582 44.3125 12.7599 43.9755 13.1063C43.6291 13.4527 43.4512 13.9115 43.4512 14.3609C43.4512 14.8102 43.6291 15.269 43.9755 15.6154C44.3219 15.9618 44.7806 16.1397 45.23 16.1397C45.6794 16.1397 46.1475 15.9618 46.4845 15.6154C46.8309 15.269 47.0088 14.8102 47.0088 14.3609C47.0088 13.9115 46.8309 13.4527 46.4845 13.1063C46.1381 12.7599 45.6794 12.582 45.23 12.582Z" fill="white"></path>
    <path d="M53.7959 12.4885C53.3839 12.0766 52.8409 11.8706 52.3073 11.8706C51.7736 11.8706 51.2212 12.0766 50.8093 12.4885C50.3974 12.9004 50.1914 13.4435 50.1914 13.9865C50.1914 14.5201 50.3974 15.0725 50.8093 15.4751C51.2212 15.887 51.7643 16.093 52.2979 16.093C52.8315 16.093 53.3839 15.887 53.7959 15.4751C54.2078 15.0631 54.4138 14.5201 54.4138 13.9771C54.4138 13.4435 54.2078 12.8911 53.7959 12.4885Z" fill="white"></path>
    <path d="M59.0396 17.7128C59.6669 17.7128 60.2942 17.4693 60.7717 16.9919C61.2491 16.5144 61.4925 15.8871 61.4925 15.2599C61.4925 14.642 61.2491 14.0053 60.781 13.5372C60.3035 13.0597 59.6763 12.8257 59.0584 12.8257C58.4311 12.8257 57.8038 13.0691 57.3264 13.5466C56.8489 14.024 56.6055 14.6513 56.6055 15.2786C56.6055 15.8965 56.8489 16.5331 57.317 17.0012C57.7945 17.4787 58.4217 17.7128 59.0396 17.7128Z" fill="white"></path>
    <path d="M65.3962 21.0547C66.1077 21.0547 66.8193 20.7832 67.3623 20.2402C67.9053 19.6972 68.1768 18.9857 68.1768 18.2741C68.1768 17.572 67.9053 16.8511 67.3623 16.3174C66.8193 15.7744 66.1077 15.5029 65.4056 15.5029C64.694 15.5029 63.9825 15.7744 63.4395 16.3174C62.8965 16.8604 62.625 17.572 62.625 18.2835C62.625 18.9857 62.8965 19.7066 63.4395 20.2402C63.9825 20.7832 64.694 21.0547 65.3962 21.0547Z" fill="white"></path>
    <path d="M71.2938 26.1575C72.0896 26.1575 72.8947 25.8486 73.4939 25.24C74.1025 24.6315 74.4114 23.8357 74.4114 23.0399C74.4114 22.2535 74.1025 21.4483 73.5033 20.8398C72.9041 20.2312 72.099 19.9316 71.3032 19.9316C70.5074 19.9316 69.7022 20.2406 69.103 20.8398C68.4945 21.4483 68.1855 22.2535 68.1855 23.0399C68.1855 23.8263 68.4945 24.6315 69.0937 25.2307C69.6929 25.8392 70.498 26.1388 71.2938 26.1388V26.1575Z" fill="white"></path>
    <path d="M37.5804 57.6704C37.2153 57.6704 36.8408 57.8108 36.56 58.0917C36.2791 58.3726 36.1387 58.7471 36.1387 59.1122C36.1387 59.4773 36.2791 59.8518 36.56 60.1327C36.8408 60.4135 37.2153 60.554 37.5804 60.554C37.9456 60.554 38.3201 60.4135 38.6009 60.1327C38.8818 59.8518 39.0222 59.4773 39.0222 59.1122C39.0222 58.7471 38.8818 58.3726 38.6009 58.0917C38.3201 57.8108 37.9456 57.6704 37.5804 57.6704Z" fill="white"></path>
    <path d="M31.4962 62.3986C31.8426 62.0522 32.0205 61.5934 32.0205 61.1441C32.0205 60.6947 31.8426 60.2359 31.4962 59.8895C31.1498 59.5431 30.6911 59.3652 30.2417 59.3652C29.7923 59.3652 29.3242 59.5431 28.9872 59.8895C28.6408 60.2359 28.4629 60.6947 28.4629 61.1441C28.4629 61.5934 28.6408 62.0522 28.9872 62.3986C29.3336 62.745 29.7923 62.9229 30.2417 62.9229C30.6911 62.9229 31.1592 62.745 31.4962 62.3986Z" fill="white"></path>
    <path d="M23.1729 63.6345C23.7065 63.6345 24.2589 63.4285 24.6709 63.0166C25.0828 62.6046 25.2888 62.0616 25.2888 61.5186C25.2888 60.985 25.0828 60.4326 24.6709 60.03C24.2589 59.6181 23.7159 59.4121 23.1823 59.4121C22.6486 59.4121 22.0962 59.6181 21.6843 60.03C21.2724 60.442 21.0664 60.985 21.0664 61.528C21.0664 62.0616 21.2724 62.614 21.6843 63.0166C22.0962 63.4285 22.6393 63.6345 23.1729 63.6345Z" fill="white"></path>
    <path d="M16.4314 57.7925C15.8041 57.7925 15.1769 58.0359 14.6994 58.5134C14.2219 58.9908 13.9785 59.6181 13.9785 60.2454C13.9785 60.8633 14.2219 61.4999 14.69 61.968C15.1675 62.4455 15.7948 62.6796 16.4127 62.6796C17.04 62.6796 17.6672 62.4361 18.1447 61.9587C18.6222 61.4812 18.8656 60.8539 18.8656 60.2267C18.8656 59.6088 18.6222 58.9721 18.1541 58.504C17.6766 58.0265 17.0493 57.7925 16.4314 57.7925Z" fill="white"></path>
    <path d="M10.0755 54.4497C9.36397 54.4497 8.65244 54.7212 8.10943 55.2642C7.56643 55.8072 7.29492 56.5188 7.29492 57.2303C7.29492 57.9325 7.56643 58.6533 8.10943 59.187C8.65244 59.73 9.36397 60.0015 10.0661 60.0015C10.7777 60.0015 11.4892 59.73 12.0322 59.187C12.5752 58.644 12.8467 57.9325 12.8467 57.2209C12.8467 56.5188 12.5752 55.7979 12.0322 55.2642C11.4892 54.7212 10.7777 54.4497 10.0755 54.4497Z" fill="white"></path>
    <path d="M4.17621 49.3477C3.38042 49.3477 2.57527 49.6566 1.97609 50.2652C1.36755 50.8737 1.05859 51.6788 1.05859 52.4653C1.05859 53.2517 1.36755 54.0568 1.96673 54.6654C2.56591 55.2739 3.37106 55.5735 4.16685 55.5735C4.96264 55.5735 5.76779 55.2646 6.36697 54.656C6.97551 54.0475 7.28446 53.2423 7.28446 52.4559C7.28446 51.6601 6.97551 50.8643 6.37633 50.2558C5.77715 49.6472 4.972 49.3477 4.17621 49.3477Z" fill="white"></path>
    <path d="M58.0854 38.9276C58.3662 39.2085 58.7407 39.3489 59.1058 39.3489C59.471 39.3489 59.8455 39.2085 60.1263 38.9276C60.4072 38.6467 60.5476 38.2722 60.5476 37.9071C60.5476 37.542 60.4072 37.1675 60.1263 36.8866C59.8455 36.6058 59.471 36.4653 59.1058 36.4653C58.7407 36.4653 58.3662 36.6058 58.0854 36.8866C57.8045 37.1675 57.6641 37.542 57.6641 37.9071C57.6641 38.2722 57.8045 38.6467 58.0854 38.9276Z" fill="white"></path>
    <path d="M59.8641 43.9828C59.5177 44.3292 59.3398 44.7879 59.3398 45.2373C59.3398 45.6867 59.5177 46.1548 59.8641 46.4919C60.2105 46.8383 60.6693 47.0161 61.1187 47.0161C61.5681 47.0161 62.0268 46.8383 62.3732 46.4919C62.7196 46.1454 62.8975 45.6867 62.8975 45.2373C62.8975 44.7879 62.7196 44.3198 62.3732 43.9828C62.0268 43.6364 61.5681 43.4585 61.1187 43.4585C60.6693 43.4585 60.2105 43.6364 59.8641 43.9828Z" fill="white"></path>
    <path d="M61.5108 50.209C60.9771 50.209 60.4248 50.415 60.0222 50.8269C59.6103 51.2388 59.4043 51.7818 59.4043 52.3155C59.4043 52.8491 59.6103 53.4015 60.0222 53.8134C60.4341 54.2254 60.9772 54.4313 61.5202 54.4313C62.0538 54.4313 62.6062 54.2254 63.0087 53.8134C63.4207 53.4015 63.6267 52.8585 63.6267 52.3248C63.6267 51.7912 63.4207 51.2388 63.0087 50.8269C62.5968 50.415 62.0538 50.209 61.5108 50.209Z" fill="white"></path>
    <path d="M61.9416 57.3337C61.4641 56.8562 60.8368 56.6128 60.2096 56.6128C59.5917 56.6128 58.955 56.8562 58.4869 57.3243C58.0094 57.8018 57.7754 58.4291 57.7754 59.047C57.7754 59.6742 58.0188 60.3015 58.4963 60.779C58.9738 61.2564 59.601 61.4999 60.2283 61.4999C60.8462 61.4999 61.4828 61.2564 61.9509 60.7883C62.4284 60.3109 62.6625 59.6836 62.6625 59.0657C62.6625 58.4384 62.419 57.8112 61.9416 57.3337Z" fill="white"></path>
    <path d="M57.2048 62.6323C56.5026 62.6323 55.7818 62.9038 55.2481 63.4468C54.7051 63.9898 54.4336 64.7014 54.4336 65.4035C54.4336 66.1151 54.7051 66.8266 55.2481 67.3696C55.7911 67.9126 56.5026 68.1841 57.2142 68.1841C57.9163 68.1841 58.6372 67.9126 59.1709 67.3696C59.7139 66.8266 59.9854 66.1151 59.9854 65.4129C59.9854 64.7014 59.7139 63.9898 59.1709 63.4468C58.6279 62.9038 57.9163 62.6323 57.2048 62.6323Z" fill="white"></path>
    <path d="M52.4383 68.2124C51.6519 68.2124 50.8468 68.5214 50.2382 69.1205C49.6297 69.7197 49.3301 70.5249 49.3301 71.3207C49.3301 72.1164 49.639 72.9216 50.2476 73.5208C50.8561 74.1293 51.6519 74.4383 52.4477 74.4383C53.2341 74.4383 54.0393 74.1293 54.6478 73.5301C55.2564 72.931 55.5559 72.1258 55.5559 71.3394C55.5559 70.5436 55.247 69.7384 54.6385 69.1393C54.0299 68.5307 53.2341 68.2218 52.4383 68.2218V68.2124Z" fill="white"></path>
    <path d="M17.388 36.5775C17.1072 36.2967 16.7327 36.1562 16.3676 36.1562C16.0024 36.1562 15.6279 36.2967 15.3471 36.5775C15.0662 36.8584 14.9258 37.2329 14.9258 37.598C14.9258 37.9632 15.0662 38.3376 15.3471 38.6185C15.6279 38.8994 16.0024 39.0398 16.3676 39.0398C16.7327 39.0398 17.1072 38.8994 17.388 38.6185C17.6689 38.3376 17.8093 37.9632 17.8093 37.598C17.8093 37.2329 17.6689 36.8584 17.388 36.5775Z" fill="white"></path>
    <path d="M15.6076 31.5221C15.954 31.1757 16.1319 30.717 16.1319 30.2676C16.1319 29.8182 15.954 29.3501 15.6076 29.0131C15.2612 28.6667 14.8024 28.4888 14.353 28.4888C13.9037 28.4888 13.4449 28.6667 13.0985 29.0131C12.7521 29.3595 12.5742 29.8182 12.5742 30.2676C12.5742 30.717 12.7521 31.1851 13.0985 31.5221C13.4449 31.8685 13.9037 32.0464 14.353 32.0464C14.8024 32.0464 15.2612 31.8685 15.6076 31.5221Z" fill="white"></path>
    <path d="M13.9596 25.2961C14.4933 25.2961 15.0456 25.0901 15.4482 24.6782C15.8601 24.2662 16.0661 23.7232 16.0661 23.1896C16.0661 22.6559 15.8601 22.1036 15.4482 21.6916C15.0363 21.2797 14.4933 21.0737 13.9502 21.0737C13.4166 21.0737 12.8642 21.2797 12.4617 21.6916C12.0497 22.1036 11.8438 22.6466 11.8438 23.1802C11.8438 23.7139 12.0497 24.2662 12.4617 24.6782C12.8736 25.0901 13.4166 25.2961 13.9596 25.2961Z" fill="white"></path>
    <path d="M15.2517 18.8924C15.8696 18.8924 16.5063 18.649 16.9744 18.1809C17.4518 17.7034 17.6859 17.0762 17.6859 16.4583C17.6859 15.831 17.4425 15.2037 16.965 14.7263C16.4875 14.2488 15.8603 14.0054 15.233 14.0054C14.6151 14.0054 13.9785 14.2488 13.5104 14.7169C13.0329 15.1944 12.7988 15.8216 12.7988 16.4395C12.7988 17.0668 13.0422 17.6941 13.5197 18.1716C13.9972 18.649 14.6245 18.8924 15.2517 18.8924Z" fill="white"></path>
    <path d="M18.2575 7.31104C17.5554 7.31104 16.8345 7.58254 16.3008 8.12555C15.7578 8.66856 15.4863 9.38008 15.4863 10.0822C15.4863 10.7938 15.7578 11.5053 16.3008 12.0483C16.8438 12.5913 17.5554 12.8628 18.2669 12.8628C18.9691 12.8628 19.69 12.5913 20.2236 12.0483C20.7666 11.5053 21.0381 10.7938 21.0381 10.0916C21.0381 9.38008 20.7666 8.66856 20.2236 8.12555C19.6806 7.58254 18.9691 7.31104 18.2575 7.31104Z" fill="white"></path>
    <path d="M23.0317 7.29228C23.8181 7.29228 24.6233 6.98332 25.2318 6.38414C25.8403 5.78496 26.1399 4.97981 26.1399 4.18402C26.1399 3.38823 25.831 2.58308 25.2224 1.9839C24.6139 1.37536 23.8181 1.06641 23.0223 1.06641C22.2359 1.06641 21.4307 1.37536 20.8222 1.97454C20.2137 2.57372 19.9141 3.37887 19.9141 4.17466C19.9141 4.97045 20.223 5.7756 20.8316 6.37478C21.4401 6.98332 22.2359 7.29228 23.0317 7.29228Z" fill="white"></path>
    <path d="M193.088 20.1094C188.641 20.1094 185.654 23.1334 185.654 27.5711C185.654 32.0087 188.65 35.0327 193.088 35.0327C197.526 35.0327 200.521 32.0462 200.521 27.5711C200.521 23.0959 197.526 20.1094 193.088 20.1094ZM193.088 32.4113C190.495 32.4113 188.819 30.3891 188.819 27.5711C188.819 24.753 190.495 22.7308 193.088 22.7308C195.681 22.7308 197.385 24.753 197.385 27.5711C197.385 30.3891 195.672 32.4113 193.088 32.4113Z" fill="white"></path>
    <path d="M138.047 27.5711C138.047 23.124 135.051 20.1094 130.613 20.1094C126.176 20.1094 123.18 23.1334 123.18 27.5711C123.18 32.0087 126.176 35.0327 130.613 35.0327C135.051 35.0327 138.047 32.0462 138.047 27.5711ZM126.344 27.5711C126.344 24.753 128.02 22.7308 130.613 22.7308C133.207 22.7308 134.911 24.753 134.911 27.5711C134.911 30.3891 133.197 32.4113 130.613 32.4113C128.029 32.4113 126.344 30.3891 126.344 27.5711Z" fill="white"></path>
    <path d="M184.054 29.1624C184.054 26.3163 182.228 24.9213 179.869 24.5468C181.947 23.9757 183.286 22.5527 183.286 20.184C183.286 16.9072 180.777 14.9131 176.395 14.9131H169.074V34.8546H176.648C181.46 34.8546 184.054 32.6919 184.054 29.1624ZM172.351 17.6562H176.48C178.755 17.6562 180.009 18.7422 180.009 20.5023C180.009 22.2624 178.727 23.3765 176.48 23.3765H172.351V17.6469V17.6562ZM172.351 26.0916H176.676C179.213 26.0916 180.693 27.1776 180.693 29.1436C180.693 30.9974 179.298 32.1021 176.676 32.1021H172.351V26.0916Z" fill="white"></path>
    <path d="M160.385 32.6453C158.166 32.6453 156.855 31.5593 156.743 30.052H153.729C153.813 33.2164 156.49 35.0327 160.394 35.0327C163.924 35.0327 166.573 33.2632 166.573 30.4733C166.573 27.2246 163.868 26.5411 160.535 26.1479C158.428 25.9232 157.033 25.7453 157.033 24.3785C157.033 23.2082 158.232 22.4686 160.057 22.4686C161.883 22.4686 163.138 23.4048 163.306 24.7436H166.33C166.133 21.757 163.596 20.0999 160.011 20.0999C156.509 20.0718 154.028 21.8694 154.028 24.6312C154.028 27.6552 156.65 28.3668 159.982 28.76C162.229 29.0408 163.568 29.1626 163.568 30.726C163.568 31.8963 162.314 32.6359 160.404 32.6359L160.385 32.6453Z" fill="white"></path>
    <path d="M146.221 26.1479C144.115 25.9232 142.72 25.7453 142.72 24.3785C142.72 23.2082 143.918 22.4686 145.744 22.4686C147.569 22.4686 148.824 23.4048 148.992 24.7436H152.016C151.82 21.757 149.283 20.0999 145.697 20.0999C142.195 20.0718 139.714 21.8694 139.714 24.6312C139.714 27.6552 142.336 28.3668 145.669 28.76C147.916 29.0408 149.255 29.1626 149.255 30.726C149.255 31.8963 148 32.6359 146.09 32.6359C143.871 32.6359 142.561 31.5499 142.448 30.0426H139.434C139.518 33.207 142.195 35.0233 146.099 35.0233C149.629 35.0233 152.279 33.2538 152.279 30.4639C152.279 27.2152 149.573 26.5318 146.24 26.1386L146.221 26.1479Z" fill="white"></path>
    <path d="M97.6674 52.2123H105.7V49.3943H97.6674V43.8705H107.404V40.9683H94.3906V60.9004H107.75V57.9981H97.6674V52.2123Z" fill="white"></path>
    <path d="M133.581 46.1455C129.284 46.1455 126.4 49.1321 126.4 53.6353C126.4 58.1385 129.275 61.0689 133.862 61.0689C137.476 61.0689 139.929 58.8781 140.444 55.9946H137.364C136.933 57.6142 135.566 58.5598 133.694 58.5598C131.269 58.5598 129.705 56.9401 129.621 54.4592V54.2625H140.612C140.668 53.86 140.696 53.4668 140.696 53.0923C140.612 48.8231 137.794 46.1455 133.572 46.1455H133.581ZM129.733 52.0156C129.958 49.9372 131.643 48.6265 133.609 48.6265C135.744 48.6265 137.251 49.8529 137.513 52.0156H129.733Z" fill="white"></path>
    <path d="M177.107 57.3988L173.035 46.314H169.758L175.422 60.9845L174.851 62.4076C174.392 63.606 174.111 63.8868 172.913 63.8868H170.75V66.5925H174.055C176.19 66.5925 176.817 65.5346 177.725 63.1753L184.335 46.314H181.058L177.098 57.3988H177.107Z" fill="white"></path>
    <path d="M164.214 48.5984C163.278 47.1473 161.705 46.1455 159.43 46.1455C155.469 46.1455 152.539 49.0759 152.539 53.551C152.539 58.0262 155.469 60.9565 159.43 60.9565C161.705 60.9565 163.221 60.0203 164.186 58.5598V60.1795C164.186 62.9694 162.678 64.252 160.001 64.252C157.838 64.252 156.415 63.3158 156.041 61.6868H152.904C153.185 64.9636 155.9 66.7611 159.767 66.7611C165.01 66.7611 167.228 64.252 167.228 60.2918V46.3047H164.551L164.204 48.5797L164.214 48.5984ZM159.945 58.3726C157.379 58.3726 155.703 56.4065 155.703 53.5604C155.703 50.7143 157.379 48.7482 159.945 48.7482C162.51 48.7482 164.186 50.7424 164.186 53.6166C164.186 56.4908 162.51 58.3726 159.945 58.3726Z" fill="white"></path>
    <path d="M142.775 53.1486V60.8911H145.65V53.1486C145.65 52.0158 146.108 51.0046 146.848 50.2557C147.597 49.5161 148.608 49.0573 149.741 49.0573H151.098V46.1831H149.741C145.893 46.1831 142.775 49.3007 142.775 53.1486Z" fill="white"></path>
    <path d="M117.066 27.1872C117.066 26.0543 117.524 25.0432 118.264 24.2942C119.013 23.5546 120.024 23.0959 121.157 23.0959H122.514V20.2217H121.157C117.309 20.2217 114.191 23.3393 114.191 27.1872V34.9297H117.066V27.1872Z" fill="white"></path>
    <path d="M267.031 27.1872V34.9297H269.905V27.1872C269.905 26.0543 270.364 25.0432 271.104 24.2942C271.853 23.5546 272.864 23.0959 273.997 23.0959H275.354V20.2217H273.997C270.149 20.2217 267.031 23.3393 267.031 27.1872Z" fill="white"></path>
    <path d="M245.835 22.3003C244.899 21.0177 243.326 20.1095 241.107 20.1095C237.147 20.1095 234.217 23.068 234.217 27.5712C234.217 32.0744 237.147 35.0329 241.107 35.0329C243.411 35.0329 244.927 33.9469 245.863 32.6642L246.238 34.855H248.915V14.9229H245.835V22.3003ZM241.622 32.4396C239.057 32.4396 237.381 30.4454 237.381 27.5712C237.381 24.697 239.066 22.7309 241.622 22.7309C244.178 22.7309 245.863 24.7251 245.863 27.6274C245.863 30.5297 244.188 32.4396 241.622 32.4396Z" fill="white"></path>
    <path d="M258.193 20.1095C254.514 20.1095 252.07 21.8789 251.752 24.725H254.776C255 23.4424 256.227 22.5904 258.053 22.5904C260.075 22.5904 261.245 23.5828 261.245 25.2119V26.0919H257.575C253.503 26.0919 251.34 27.7677 251.34 30.7637C251.34 33.4693 253.559 35.0328 256.751 35.0328C259.12 35.0328 260.599 34.003 261.563 32.5238V34.8549H264.297V25.3991C264.297 21.9538 262.078 20.1001 258.202 20.1001L258.193 20.1095ZM261.245 28.8819C261.217 31.1288 259.738 32.6455 257.173 32.6455C255.497 32.6455 254.467 31.7935 254.467 30.567C254.467 29.0878 255.525 28.3763 257.425 28.3763H261.245V28.8912V28.8819Z" fill="white"></path>
    <path d="M288.405 20.2778L284.445 31.3627L280.372 20.2778H277.096L282.76 34.9484L282.189 36.3715C281.73 37.5698 281.449 37.8507 280.251 37.8507H278.088V40.5564H281.393C283.528 40.5564 284.155 39.4985 285.063 37.1392L291.673 20.2778H288.396H288.405Z" fill="white"></path>
    <path d="M108.79 28.0862C108.163 30.6233 106.253 32.1587 103.491 32.1587C99.7278 32.1587 97.4528 29.1441 97.4528 24.8937C97.4528 20.6432 99.7934 17.6286 103.576 17.6286C106.281 17.6286 108.163 19.1921 108.819 21.7012H112.208C111.552 17.4882 108.276 14.7544 103.716 14.7544C97.818 14.7544 94.0918 18.827 94.0918 24.8937C94.0918 30.9604 97.7056 35.0329 103.52 35.0329C108.163 35.0329 111.552 32.2992 112.18 28.0862H108.79Z" fill="white"></path>
    <path d="M213.179 28.3762C213.179 29.4154 212.767 30.3423 212.084 31.0164C211.4 31.6998 210.474 32.1118 209.444 32.1118C208.404 32.1118 207.478 31.6998 206.804 31.0164C206.129 30.3329 205.708 29.4061 205.708 28.3762V20.2686H202.834V28.3762C202.834 32.0275 205.792 34.986 209.444 34.986C213.095 34.986 216.053 32.0275 216.053 28.3762V20.2686H213.179V28.3762Z" fill="white"></path>
    <path d="M225.143 20.2871C221.492 20.2871 218.533 23.2456 218.533 26.8968V35.0045H221.407V26.8968C221.407 25.8576 221.819 24.9308 222.503 24.2567C223.186 23.5826 224.113 23.1613 225.143 23.1613C226.182 23.1613 227.109 23.5732 227.783 24.2567C228.457 24.9401 228.878 25.867 228.878 26.8968V35.0045H231.753V26.8968C231.753 23.2456 228.794 20.2871 225.143 20.2871Z" fill="white"></path>
    <path d="M117.385 46.1548C113.734 46.1548 110.775 49.1132 110.775 52.7645V60.8722H113.65V52.7645C113.65 51.7253 114.062 50.7984 114.745 50.1244C115.428 49.4503 116.355 49.029 117.385 49.029C118.424 49.029 119.351 49.4409 120.025 50.1244C120.699 50.8078 121.121 51.7347 121.121 52.7645V60.8722H123.995V52.7645C123.995 49.1132 121.036 46.1548 117.385 46.1548Z" fill="white"></path>
  </g>
  <defs>
    <clipPath id="clip0_15308_43597">
      <rect width="291.193" height="74.4951" fill="white" transform="translate(0.488281 0.504883)"></rect>
    </clipPath>
  </defs>
</svg>
